<svg width="45" height="46" viewBox="0 0 45 46" fill="none" xmlns="http://www.w3.org/2000/svg">
<path d="M44.9674 23.4008C44.9587 17.4421 42.5833 11.7309 38.3637 7.52369C34.1442 3.31644 28.4262 0.957723 22.4675 0.966431C16.5089 0.975139 10.7978 3.35056 6.59055 7.57013C2.38332 11.7897 0.0246149 17.5078 0.0333238 23.4664L22.5004 23.4336L44.9674 23.4008Z" fill="#F57710" fill-opacity="0.8"/>
<path d="M22.4957 0.939817C19.5453 0.938994 16.6234 1.51931 13.8968 2.64763C11.1703 3.77595 8.69246 5.43018 6.60487 7.51587C4.51728 9.60156 2.86079 12.0779 1.72998 14.8034C0.599171 17.5289 0.0161827 20.4503 0.0143044 23.4007L22.4814 23.407L22.4957 0.939817Z" fill="#E47929" fill-opacity="0.8"/>
<path d="M0.0136574 23.4009C0.0119222 26.3514 0.591331 29.2732 1.71881 31.9997C2.84628 34.7263 4.49973 37.204 6.58477 39.2915C8.6698 41.379 11.1456 43.0354 13.8707 44.166C16.5959 45.2967 19.5171 45.8796 22.4675 45.8813L22.4807 23.4141L0.0136574 23.4009Z" fill="#463F39" fill-opacity="0.8"/>
<path d="M22.4678 45.8944C25.4182 45.8979 28.3404 45.3202 31.0675 44.1943C33.7947 43.0684 36.2734 41.4163 38.3621 39.3325C40.4508 37.2487 42.1086 34.7738 43.2408 32.0493C44.3731 29.3248 44.9576 26.4039 44.9611 23.4535L22.494 23.4273L22.4678 45.8944Z" fill="#131210"/>
</svg>
