<svg width="25" height="22" viewBox="0 0 25 22" fill="none" xmlns="http://www.w3.org/2000/svg">
<path fill-rule="evenodd" clip-rule="evenodd" d="M18.4095 1.53909C17.4366 2.38552 16.6402 3.13534 16.6398 3.2052C16.6392 3.27518 17.7041 4.2646 19.0064 5.4039L21.3738 7.47557L23.2458 5.82215C24.8362 4.41762 25.0961 4.13405 24.9736 3.93755C24.7377 3.55938 20.5746 0 20.3682 0C20.2637 0 19.3823 0.692653 18.4095 1.53909ZM8.69866 10.0656L1.73901 16.151L4.17392 18.283L6.60883 20.415L13.5592 14.3214L20.5095 8.2279L18.0839 6.10409L15.6585 3.98027L8.69866 10.0656ZM1.01733 17.3069C1.01661 17.3587 0.76124 18.3623 0.449836 19.537C-0.309255 22.3996 -0.459009 22.2727 2.8803 21.5964C4.2589 21.3172 5.40922 21.0691 5.43673 21.0451C5.49993 20.9897 1.23759 17.2127 1.11177 17.2127C1.06046 17.2127 1.0179 17.2551 1.01733 17.3069Z" fill="#E77D2C"/>
</svg>
