<svg width="30" height="28" viewBox="0 0 30 28" fill="none" xmlns="http://www.w3.org/2000/svg">
<path fill-rule="evenodd" clip-rule="evenodd" d="M1.11269 0.3024C0.177562 0.9534 0 2.00228 0 6.874V11.536L0.796454 12.488L1.59291 13.44H7.70686H13.8208V15.26C13.8208 16.6474 13.7416 17.08 13.4875 17.08C13.3041 17.08 12.8297 17.4062 12.4333 17.8049C11.7507 18.4912 11.7128 18.6362 11.7177 20.5349C11.7238 22.9051 12.2577 24.5568 13.3216 25.4971C13.7152 25.8448 14.2043 26.5504 14.4086 27.0648L14.7798 28H18.7511C22.3761 28 22.7226 27.9572 22.7247 27.51C22.7259 27.2404 22.9908 26.3424 23.3134 25.5139C24.0557 23.6082 24.1667 22.3202 23.6008 22.1802C23.304 22.1068 23.1902 22.2586 23.1887 22.7296C23.1876 23.0874 22.9273 24.01 22.6104 24.78C22.2934 25.55 22.0308 26.4004 22.0269 26.67C22.0203 27.113 21.7048 27.16 18.7462 27.16H15.4725L15.1113 26.325C14.9127 25.8656 14.4397 25.2157 14.0602 24.8802C13.0733 24.0083 12.6496 22.7413 12.6496 20.6637C12.6496 18.9017 12.8965 18.2 13.5163 18.2C13.7353 18.2 13.8208 18.7169 13.8208 20.0404C13.8208 21.6426 13.874 21.8688 14.2308 21.7868C14.5997 21.7022 14.647 21.1996 14.7046 16.7538C14.7592 12.5255 14.8225 11.7902 15.1441 11.6427C15.9726 11.2627 16.1481 11.9627 16.2153 15.918C16.2694 19.094 16.3397 19.74 16.6318 19.74C16.8874 19.74 17.0151 19.32 17.1003 18.2C17.2083 16.7812 17.2636 16.66 17.8031 16.66C18.3423 16.66 18.3981 16.7815 18.5058 18.1975C18.5934 19.348 18.7225 19.7576 19.0186 19.8248C19.3323 19.896 19.4295 19.6638 19.4871 18.7074C19.5522 17.6294 19.6227 17.5 20.1456 17.5C20.6527 17.5 20.7469 17.6495 20.8483 18.6172C20.983 19.903 21.6942 20.3753 21.8259 19.2662C21.8826 18.788 22.0547 18.62 22.4881 18.62C22.9798 18.62 23.0857 18.7687 23.1482 19.5468C23.2037 20.2387 23.3225 20.4512 23.6167 20.3846C24.2059 20.251 24.2265 18.9854 23.6535 18.1146C23.3134 17.598 22.9376 17.36 22.4616 17.36C22.0793 17.36 21.4619 17.0909 21.0899 16.7622C20.6602 16.3822 20.2257 16.2229 19.8992 16.3248C19.5752 16.4262 19.1418 16.2708 18.7279 15.9048C18.3346 15.5574 17.8759 15.3852 17.5855 15.4759C17.1558 15.6103 17.1003 15.5022 17.1003 14.5337V13.44H22.7458H28.3912L29.1877 12.488L29.9841 11.536V8.54756C29.9841 5.85228 29.9438 5.56808 29.5742 5.65264C29.2214 5.73356 29.1549 6.14124 29.0977 8.57836C29.0022 12.6582 29.3606 12.439 22.6104 12.5482L17.1589 12.6367L17.0097 11.9263C16.8234 11.0398 16.1331 10.5804 15.157 10.6932C14.5695 10.7612 14.3301 10.9794 14.0551 11.6984L13.7037 12.6165L7.81298 12.5384C2.40178 12.4664 1.88221 12.4166 1.42963 11.9266C0.966286 11.4248 0.937004 11.114 0.937004 6.69704V2.0006L1.55426 1.42044C2.0839 0.92232 2.49923 0.84 4.48239 0.84C6.3803 0.84 6.79328 0.76496 6.79328 0.42C6.79328 0.07112 6.3475 0.00139993 4.15796 0.00839993C2.70865 0.0131599 1.33804 0.14532 1.11269 0.3024ZM8.19879 0.42C8.19879 0.78652 9.44454 0.84 18.0057 0.84C27.5725 0.84 27.8279 0.85428 28.4299 1.42044C28.8752 1.83904 29.0471 2.2596 29.0471 2.93048C29.0471 3.46976 29.1851 3.92336 29.3756 4.01072C30.4976 4.52536 29.9811 1.02732 28.8258 0.2884C28.5367 0.10332 24.758 0 18.287 0C9.47593 0 8.19879 0.0532 8.19879 0.42ZM1.86932 5.05064C1.51748 5.83604 1.79343 6.685 2.46573 6.88688C2.77377 6.97928 3.16216 7.25228 3.32847 7.49336C3.59716 7.88256 3.52361 7.9114 2.6714 7.74928C2.14363 7.64904 1.6428 7.64988 1.55824 7.75096C1.24973 8.11944 2.19493 8.96 2.9176 8.96C3.82626 8.96 4.21652 8.5246 4.21652 7.51072C4.21652 6.89864 4.03474 6.622 3.3615 6.209C2.84428 5.89176 2.6112 5.60756 2.77119 5.4894C2.91666 5.38188 3.25023 5.43144 3.51236 5.59916C3.89442 5.84332 4.01858 5.81252 4.13711 5.44376C4.46647 4.41728 2.31955 4.04516 1.86932 5.05064ZM4.91927 6.2566C4.91927 7.62216 5.01836 8.14044 5.34772 8.4966C5.91343 9.10868 6.85981 9.08544 7.3426 8.44788C7.86311 7.76076 7.90269 4.48 7.39062 4.48C7.14138 4.48 7.03222 4.90868 6.98068 6.09C6.91486 7.59836 6.8734 7.7 6.32478 7.7C5.77616 7.7 5.7347 7.59836 5.66888 6.09C5.61734 4.90868 5.50818 4.48 5.25894 4.48C4.99798 4.48 4.91927 4.89132 4.91927 6.2566ZM8.43304 6.72V8.96H9.45859C10.8322 8.96 11.0998 8.52936 10.8894 6.6584C10.6786 4.78492 10.4619 4.48 9.34146 4.48H8.43304V6.72ZM11.9494 4.89636C11.4905 5.55716 11.8529 6.6262 12.6482 6.95744C13.6306 7.3668 13.5744 7.95228 12.5741 7.72772C11.613 7.5124 11.3556 7.77364 11.8655 8.44732C12.3061 9.02916 13.5812 9.13444 14.0082 8.624C14.1628 8.4392 14.2893 7.93324 14.2893 7.49952C14.2893 6.87596 14.12 6.61444 13.4795 6.24932C12.5802 5.73664 12.5718 5.19204 13.4694 5.6C14.1427 5.90604 14.4716 5.50004 14.0466 4.88768C13.6779 4.3568 12.32 4.3624 11.9494 4.89636ZM15.305 5.20044C14.8028 5.80104 14.725 6.0928 14.84 6.95044C14.997 8.1228 15.7119 8.96 16.5562 8.96C17.3254 8.96 18.0373 8.47812 18.0373 7.9576C18.0373 7.62552 17.8602 7.57428 17.2149 7.71904C16.298 7.92456 15.6948 7.52248 15.6948 6.70572C15.6948 5.81084 16.3587 5.28584 17.2404 5.48352C18.0572 5.66664 18.2545 5.41156 17.7562 4.816C17.2535 4.21512 15.9595 4.41812 15.305 5.20044ZM18.6621 4.66676C18.4667 4.9 18.4557 7.9184 18.648 8.51704C18.8593 9.17504 19.4428 9.05324 19.4428 8.35128V7.74228L19.9849 8.35128C20.9179 9.39876 21.5403 8.90848 20.6949 7.79212C20.3342 7.31556 20.3342 7.24444 20.6949 6.76788C21.1503 6.16644 21.1981 5.29004 20.8015 4.816C20.504 4.4604 18.9266 4.35036 18.6621 4.66676ZM21.6488 4.8594C21.5818 5.06828 21.5588 6.04352 21.5977 7.0266C21.6544 8.46636 21.7481 8.8326 22.0782 8.90764C22.4413 8.99024 22.4881 8.74244 22.4881 6.74044C22.4881 4.8972 22.4218 4.48 22.1295 4.48C21.932 4.48 21.7158 4.6508 21.6488 4.8594ZM23.1909 6.72V8.96H24.2164C25.5901 8.96 25.8576 8.52936 25.6472 6.6584C25.4364 4.78492 25.2197 4.48 24.0993 4.48H23.1909V6.72ZM26.4034 4.6536C26.1998 4.89692 26.1804 7.90048 26.3783 8.51704C26.5217 8.96392 28.0961 9.16328 28.4205 8.77576C28.6611 8.4882 28.1017 7.84 27.6131 7.84C26.9937 7.84 27.0635 7.33768 27.6978 7.2296C28.4765 7.0966 28.5449 6.16 27.7759 6.16C26.9489 6.16 26.985 5.383 27.8173 5.26848C28.1717 5.21976 28.4615 5.054 28.4615 4.9C28.4615 4.57408 26.6512 4.35736 26.4034 4.6536ZM9.83855 5.6C9.83855 5.754 9.73313 5.88 9.60429 5.88C9.47546 5.88 9.37004 5.754 9.37004 5.6C9.37004 5.446 9.47546 5.32 9.60429 5.32C9.73313 5.32 9.83855 5.446 9.83855 5.6ZM20.092 5.82764C20.143 6.01048 20.0177 6.16 19.8137 6.16C19.6099 6.16 19.4428 5.96064 19.4428 5.71676C19.4428 5.22228 19.9472 5.30824 20.092 5.82764ZM24.5964 5.6C24.5964 5.754 24.4319 5.88 24.2312 5.88C24.0304 5.88 23.9311 5.754 24.0107 5.6C24.0904 5.446 24.2546 5.32 24.3759 5.32C24.4973 5.32 24.5964 5.446 24.5964 5.6ZM10.1438 7.41608C10.1691 7.56812 10.0053 7.73472 9.77998 7.7868C9.52348 7.8456 9.37004 7.7084 9.37004 7.42C9.37004 6.9328 10.0623 6.92944 10.1438 7.41608ZM24.8522 7.42C24.8505 7.574 24.6341 7.74032 24.3715 7.7896C23.9002 7.8778 23.7376 7.55972 24.0578 7.17696C24.2857 6.9048 24.8561 7.07924 24.8522 7.42Z" fill="#E77D2C"/>
</svg>
