<svg width="25" height="23" viewBox="0 0 25 23" fill="none" xmlns="http://www.w3.org/2000/svg">
<path fill-rule="evenodd" clip-rule="evenodd" d="M10.8465 0.226833C8.04336 0.869241 6.09768 2.76606 5.50048 5.43913C5.03984 7.50163 5.83974 9.85952 7.50899 11.3599L8.37172 12.1352L7.06021 12.7175C3.27916 14.3961 0.621907 17.9163 0.135586 21.8911L0 23H0.997736C1.97291 23 1.99547 22.9879 1.99547 22.4691C1.99547 19.4035 4.66284 15.7106 7.90466 14.2884C10.992 12.9336 14.008 12.9336 17.0953 14.2884C20.3372 15.7106 23.0045 19.4035 23.0045 22.4691C23.0045 22.9879 23.0271 23 24.0023 23H25L24.8644 21.8911C24.3781 17.9163 21.7208 14.3961 17.9398 12.7175L16.6283 12.1352L17.491 11.3599C19.1603 9.85952 19.9602 7.50163 19.4995 5.43913C18.886 2.6932 16.8166 0.747811 13.9008 0.175563C12.6451 -0.0707139 12.1057 -0.0617191 10.8465 0.226833ZM14.8059 2.32729C15.4666 2.63258 16.2202 3.14078 16.4808 3.45668C18.6724 6.11392 17.9149 9.49506 14.8059 10.9317C13.1528 11.6957 11.8472 11.6957 10.1941 10.9317C6.27218 9.11925 6.27218 4.13974 10.1941 2.32729C11.8472 1.56328 13.1528 1.56328 14.8059 2.32729Z" fill="white"/>
</svg>
