<svg width="60" height="60" viewBox="0 0 60 60" fill="none" xmlns="http://www.w3.org/2000/svg">
<path d="M59.9564 29.9562C59.9448 22.0113 56.7775 14.3964 51.1515 8.78678C45.5254 3.17712 37.9013 0.0321716 29.9564 0.0437828C22.0116 0.0553941 14.3967 3.22262 8.78707 8.84869C3.17741 14.4748 0.0324601 22.0988 0.044072 30.0437L30.0002 29.9999L59.9564 29.9562Z" fill="#F57710" fill-opacity="0.8"/>
<path d="M29.9848 0.0112432C26.0509 0.00978072 22.1551 0.783174 18.52 2.28726C14.8848 3.79135 11.5814 5.99668 8.79838 8.77733C6.01536 11.558 3.80723 14.8595 2.30006 18.4934C0.792882 22.1273 0.0161827 26.0224 0.0143044 29.9563L29.9705 29.9674L29.9848 0.0112432Z" fill="#E47929" fill-opacity="0.8"/>
<path d="M0.0173618 29.9563C0.0150482 33.8902 0.787598 37.7861 2.2909 41.4214C3.7942 45.0567 5.99881 48.3604 8.77887 51.1437C11.5589 53.927 14.86 56.1355 18.4935 57.6431C22.1271 59.1507 26.022 59.9278 29.9559 59.9301L29.9735 29.974L0.0173618 29.9563Z" fill="#463F39" fill-opacity="0.8"/>
<path d="M29.9563 59.9477C33.8902 59.9523 37.7865 59.182 41.4227 57.6808C45.0589 56.1796 48.3638 53.9769 51.1487 51.1984C53.9337 48.42 56.1441 45.1202 57.6538 41.4875C59.1635 37.8549 59.9428 33.9604 59.9474 30.0265L29.9913 29.9915L29.9563 59.9477Z" fill="#131210"/>
</svg>
