<svg width="28" height="29" viewBox="0 0 28 29" fill="none" xmlns="http://www.w3.org/2000/svg">
<path fill-rule="evenodd" clip-rule="evenodd" d="M13.4835 0.190086C13.3524 0.250939 10.2889 3.33385 6.67562 7.04091C-0.460936 14.3627 -0.086151 13.9296 0.0536084 14.6923C0.126944 15.0928 0.602238 15.5794 0.99331 15.6545C1.73628 15.7973 1.36222 16.1338 7.94164 9.40367L14 3.20653L20.0584 9.40367C26.6378 16.1338 26.2637 15.7973 27.0067 15.6545C27.3978 15.5794 27.8731 15.0928 27.9464 14.6923C28.0861 13.9296 28.4609 14.3627 21.3244 7.04083C17.5025 3.11964 14.6479 0.252973 14.4991 0.186751C14.1799 0.0446253 13.7938 0.045927 13.4835 0.190086ZM13.4835 13.2067C13.3524 13.2676 10.2889 16.3505 6.67562 20.0576C-0.460936 27.3793 -0.086151 26.9463 0.0536084 27.709C0.126944 28.1094 0.602238 28.5961 0.99331 28.6712C1.73628 28.8139 1.36222 29.1504 7.94164 22.4203L14 16.2232L20.0584 22.4203C26.6378 29.1504 26.2637 28.8139 27.0067 28.6712C27.3978 28.5961 27.8731 28.1094 27.9464 27.709C28.0861 26.9463 28.4609 27.3793 21.3244 20.0575C17.5025 16.1363 14.6479 13.2696 14.4991 13.2034C14.1799 13.0613 13.7938 13.0626 13.4835 13.2067Z" fill="white"/>
</svg>
