<svg width="182" height="60" viewBox="0 0 182 60" fill="none" xmlns="http://www.w3.org/2000/svg">
<path d="M59.9561 29.9562C59.9445 22.0113 56.7773 14.3964 51.1512 8.78678C45.5251 3.17712 37.9011 0.0321716 29.9562 0.0437828C22.0113 0.0553941 14.3965 3.22262 8.78683 8.84869C3.17717 14.4748 0.0322173 22.0988 0.0438279 30.0437L30 29.9999L59.9561 29.9562Z" fill="#F57710" fill-opacity="0.8"/>
<path d="M29.9848 0.0112432C26.0509 0.00978072 22.1551 0.783172 18.52 2.28726C14.8848 3.79135 11.5814 5.99668 8.79838 8.77733C6.01536 11.558 3.80723 14.8595 2.30006 18.4934C0.792882 22.1273 0.0161827 26.0224 0.0143044 29.9563L29.9705 29.9674L29.9848 0.0112432Z" fill="#E47929" fill-opacity="0.8"/>
<path d="M0.0176059 29.9563C0.0152923 33.8902 0.787841 37.7861 2.29114 41.4214C3.79444 45.0567 5.99906 48.3604 8.77911 51.1437C11.5592 53.927 14.8602 56.1355 18.4938 57.6431C22.1273 59.1507 26.0223 59.9278 29.9562 59.9301L29.9738 29.974L0.0176059 29.9563Z" fill="#463F39" fill-opacity="0.8"/>
<path d="M29.9565 59.9477C33.8904 59.9523 37.7867 59.182 41.4229 57.6808C45.0591 56.1796 48.364 53.9769 51.149 51.1984C53.9339 48.42 56.1443 45.1202 57.654 41.4875C59.1637 37.8549 59.9431 33.9604 59.9477 30.0265L29.9915 29.9915L29.9565 59.9477Z" fill="#131210"/>
<path d="M83.3047 33.235H76.7305L76.6953 29.6139H82.2148C83.1875 29.6139 83.9844 29.4908 84.6055 29.2448C85.2266 28.9869 85.6895 28.6178 85.9941 28.1373C86.3105 27.6451 86.4688 27.0475 86.4688 26.3444C86.4688 25.5475 86.3164 24.903 86.0117 24.4108C85.7188 23.9186 85.2559 23.5612 84.623 23.3385C84.002 23.1158 83.1992 23.0045 82.2148 23.0045H78.5586V44.4674H73.2852V18.8737H82.2148C83.7031 18.8737 85.0332 19.0143 86.2051 19.2955C87.3887 19.5768 88.3906 20.0045 89.2109 20.5787C90.0312 21.153 90.6582 21.8795 91.0918 22.7584C91.5254 23.6256 91.7422 24.6569 91.7422 25.8522C91.7422 26.9069 91.502 27.8795 91.0215 28.7701C90.5527 29.6608 89.8086 30.3873 88.7891 30.9498C87.7812 31.5123 86.4629 31.8229 84.834 31.8815L83.3047 33.235ZM83.0762 44.4674H75.2891L77.3457 40.3541H83.0762C84.002 40.3541 84.7578 40.2076 85.3438 39.9147C85.9297 39.61 86.3633 39.1998 86.6445 38.6842C86.9258 38.1686 87.0664 37.5768 87.0664 36.9088C87.0664 36.1588 86.9375 35.5084 86.6797 34.9576C86.4336 34.4069 86.0352 33.985 85.4844 33.692C84.9336 33.3873 84.207 33.235 83.3047 33.235H78.2246L78.2598 29.6139H84.5879L85.8008 31.0377C87.3594 31.0143 88.6133 31.2897 89.5625 31.8639C90.5234 32.4264 91.2207 33.1588 91.6543 34.0612C92.0996 34.9635 92.3223 35.9303 92.3223 36.9615C92.3223 38.6022 91.9648 39.985 91.25 41.11C90.5352 42.2233 89.4863 43.0612 88.1035 43.6237C86.7324 44.1862 85.0566 44.4674 83.0762 44.4674ZM95.1523 35.151V34.7819C95.1523 33.3873 95.3516 32.1041 95.75 30.9323C96.1484 29.7487 96.7285 28.7233 97.4902 27.8561C98.252 26.9889 99.1895 26.3151 100.303 25.8346C101.416 25.3424 102.693 25.0963 104.135 25.0963C105.576 25.0963 106.859 25.3424 107.984 25.8346C109.109 26.3151 110.053 26.9889 110.814 27.8561C111.588 28.7233 112.174 29.7487 112.572 30.9323C112.971 32.1041 113.17 33.3873 113.17 34.7819V35.151C113.17 36.5338 112.971 37.817 112.572 39.0006C112.174 40.1725 111.588 41.1979 110.814 42.0768C110.053 42.944 109.115 43.6178 108.002 44.0983C106.889 44.5787 105.611 44.819 104.17 44.819C102.729 44.819 101.445 44.5787 100.32 44.0983C99.207 43.6178 98.2637 42.944 97.4902 42.0768C96.7285 41.1979 96.1484 40.1725 95.75 39.0006C95.3516 37.817 95.1523 36.5338 95.1523 35.151ZM100.215 34.7819V35.151C100.215 35.9479 100.285 36.692 100.426 37.3834C100.566 38.0748 100.789 38.6842 101.094 39.2115C101.41 39.7272 101.82 40.1315 102.324 40.4244C102.828 40.7174 103.443 40.8639 104.17 40.8639C104.873 40.8639 105.477 40.7174 105.98 40.4244C106.484 40.1315 106.889 39.7272 107.193 39.2115C107.498 38.6842 107.721 38.0748 107.861 37.3834C108.014 36.692 108.09 35.9479 108.09 35.151V34.7819C108.09 34.0084 108.014 33.2819 107.861 32.6022C107.721 31.9108 107.492 31.3014 107.176 30.774C106.871 30.235 106.467 29.8131 105.963 29.5084C105.459 29.2037 104.85 29.0514 104.135 29.0514C103.42 29.0514 102.811 29.2037 102.307 29.5084C101.814 29.8131 101.41 30.235 101.094 30.774C100.789 31.3014 100.566 31.9108 100.426 32.6022C100.285 33.2819 100.215 34.0084 100.215 34.7819ZM115.473 35.151V34.7819C115.473 33.3873 115.672 32.1041 116.07 30.9323C116.469 29.7487 117.049 28.7233 117.811 27.8561C118.572 26.9889 119.51 26.3151 120.623 25.8346C121.736 25.3424 123.014 25.0963 124.455 25.0963C125.896 25.0963 127.18 25.3424 128.305 25.8346C129.43 26.3151 130.373 26.9889 131.135 27.8561C131.908 28.7233 132.494 29.7487 132.893 30.9323C133.291 32.1041 133.49 33.3873 133.49 34.7819V35.151C133.49 36.5338 133.291 37.817 132.893 39.0006C132.494 40.1725 131.908 41.1979 131.135 42.0768C130.373 42.944 129.436 43.6178 128.322 44.0983C127.209 44.5787 125.932 44.819 124.49 44.819C123.049 44.819 121.766 44.5787 120.641 44.0983C119.527 43.6178 118.584 42.944 117.811 42.0768C117.049 41.1979 116.469 40.1725 116.07 39.0006C115.672 37.817 115.473 36.5338 115.473 35.151ZM120.535 34.7819V35.151C120.535 35.9479 120.605 36.692 120.746 37.3834C120.887 38.0748 121.109 38.6842 121.414 39.2115C121.73 39.7272 122.141 40.1315 122.645 40.4244C123.148 40.7174 123.764 40.8639 124.49 40.8639C125.193 40.8639 125.797 40.7174 126.301 40.4244C126.805 40.1315 127.209 39.7272 127.514 39.2115C127.818 38.6842 128.041 38.0748 128.182 37.3834C128.334 36.692 128.41 35.9479 128.41 35.151V34.7819C128.41 34.0084 128.334 33.2819 128.182 32.6022C128.041 31.9108 127.812 31.3014 127.496 30.774C127.191 30.235 126.787 29.8131 126.283 29.5084C125.779 29.2037 125.17 29.0514 124.455 29.0514C123.74 29.0514 123.131 29.2037 122.627 29.5084C122.135 29.8131 121.73 30.235 121.414 30.774C121.109 31.3014 120.887 31.9108 120.746 32.6022C120.605 33.2819 120.535 34.0084 120.535 34.7819ZM141.664 17.4498V44.4674H136.602V17.4498H141.664ZM153.652 25.4479L145.391 34.8698L140.961 39.3522L139.115 35.6959L142.631 31.2311L147.57 25.4479H153.652ZM148.396 44.4674L142.771 35.6783L146.27 32.6198L154.232 44.4674H148.396ZM161.176 17.4674V44.4674H156.096V17.4674H161.176ZM171.002 42.3229L176.047 25.4479H181.479L173.832 47.3326C173.668 47.8131 173.445 48.3287 173.164 48.8795C172.895 49.4303 172.525 49.9518 172.057 50.444C171.6 50.9479 171.02 51.358 170.316 51.6744C169.625 51.9908 168.775 52.149 167.768 52.149C167.287 52.149 166.895 52.1198 166.59 52.0612C166.285 52.0026 165.922 51.9205 165.5 51.8151V48.1061C165.629 48.1061 165.764 48.1061 165.904 48.1061C166.045 48.1178 166.18 48.1237 166.309 48.1237C166.977 48.1237 167.521 48.0475 167.943 47.8951C168.365 47.7428 168.705 47.5084 168.963 47.192C169.221 46.8873 169.426 46.4889 169.578 45.9967L171.002 42.3229ZM168.893 25.4479L173.023 39.2291L173.744 44.5905L170.299 44.9596L163.461 25.4479H168.893Z" fill="white"/>
</svg>
