<svg width="100" height="100" viewBox="0 0 100 100" fill="none" xmlns="http://www.w3.org/2000/svg">
<path d="M99.927 49.927C99.9076 36.6856 94.6289 23.9941 85.2521 14.6447C75.8753 5.29521 63.1685 0.0536193 49.9271 0.0729714C36.6856 0.0923235 23.9942 5.37104 14.6448 14.7479C5.29536 24.1247 0.0537731 36.8315 0.0731241 50.073L50 50L99.927 49.927Z" fill="#F57710" fill-opacity="0.8"/>
<path d="M49.9751 0.0188951C43.4186 0.0164576 36.9257 1.30545 30.8671 3.81226C24.8085 6.31908 19.3028 9.99464 14.6645 14.6291C10.0261 19.2635 6.34587 24.7661 3.83392 30.8226C1.32196 36.8791 0.0274594 43.3709 0.0243289 49.9274L49.9513 49.946L49.9751 0.0188951Z" fill="#E47929" fill-opacity="0.8"/>
<path d="M0.0294285 49.9273C0.0255725 56.4838 1.31315 62.9769 3.81866 69.0358C6.32416 75.0947 9.99852 80.6008 14.6319 85.2397C19.2654 89.8785 24.7671 93.5594 30.823 96.072C36.879 98.5846 43.3705 99.8799 49.927 99.8837L49.9564 49.9566L0.0294285 49.9273Z" fill="#463F39" fill-opacity="0.8"/>
<path d="M49.9276 99.913C56.4841 99.9206 62.9779 98.6368 69.0383 96.1348C75.0986 93.6328 80.6068 89.9617 85.2484 85.3309C89.8899 80.7002 93.574 75.2006 96.0901 69.1461C98.6062 63.0916 99.9052 56.6007 99.9129 50.0442L49.9859 49.9859L49.9276 99.913Z" fill="#131210"/>
</svg>
