<svg width="182" height="60" viewBox="0 0 182 60" fill="none" xmlns="http://www.w3.org/2000/svg">
<path d="M59.9561 29.9562C59.9445 22.0113 56.7773 14.3964 51.1512 8.78678C45.5251 3.17712 37.9011 0.0321716 29.9562 0.0437828C22.0113 0.0553941 14.3965 3.22262 8.78683 8.84869C3.17717 14.4748 0.0322173 22.0988 0.0438279 30.0437L30 29.9999L59.9561 29.9562Z" fill="#F57710" fill-opacity="0.8"/>
<path d="M29.9848 0.0113653C26.0509 0.00990279 22.1551 0.783294 18.52 2.28738C14.8848 3.79147 11.5814 5.9968 8.79838 8.77745C6.01536 11.5581 3.80723 14.8596 2.30006 18.4935C0.792882 22.1274 0.0161827 26.0225 0.0143044 29.9564L29.9705 29.9675L29.9848 0.0113653Z" fill="#E47929" fill-opacity="0.8"/>
<path d="M0.0176059 29.9563C0.0152923 33.8902 0.787841 37.7861 2.29114 41.4214C3.79444 45.0567 5.99906 48.3604 8.77911 51.1437C11.5592 53.927 14.8602 56.1355 18.4938 57.6431C22.1273 59.1507 26.0223 59.9278 29.9562 59.9301L29.9738 29.974L0.0176059 29.9563Z" fill="#463F39" fill-opacity="0.8"/>
<path d="M29.9565 59.9477C33.8904 59.9523 37.7867 59.182 41.4229 57.6808C45.0591 56.1796 48.364 53.9769 51.149 51.1984C53.9339 48.42 56.1443 45.1202 57.654 41.4875C59.1637 37.8549 59.9431 33.9604 59.9477 30.0265L29.9915 29.9915L29.9565 59.9477Z" fill="#131210"/>
<path d="M83.3047 33.2349H76.7305L76.6953 29.6138H82.2148C83.1875 29.6138 83.9844 29.4907 84.6055 29.2446C85.2266 28.9868 85.6895 28.6177 85.9941 28.1372C86.3105 27.645 86.4688 27.0474 86.4688 26.3442C86.4688 25.5474 86.3164 24.9028 86.0117 24.4106C85.7188 23.9185 85.2559 23.561 84.623 23.3384C84.002 23.1157 83.1992 23.0044 82.2148 23.0044H78.5586V44.4673H73.2852V18.8735H82.2148C83.7031 18.8735 85.0332 19.0142 86.2051 19.2954C87.3887 19.5767 88.3906 20.0044 89.2109 20.5786C90.0312 21.1528 90.6582 21.8794 91.0918 22.7583C91.5254 23.6255 91.7422 24.6567 91.7422 25.8521C91.7422 26.9067 91.502 27.8794 91.0215 28.77C90.5527 29.6606 89.8086 30.3872 88.7891 30.9497C87.7812 31.5122 86.4629 31.8228 84.834 31.8813L83.3047 33.2349ZM83.0762 44.4673H75.2891L77.3457 40.354H83.0762C84.002 40.354 84.7578 40.2075 85.3438 39.9146C85.9297 39.6099 86.3633 39.1997 86.6445 38.6841C86.9258 38.1685 87.0664 37.5767 87.0664 36.9087C87.0664 36.1587 86.9375 35.5083 86.6797 34.9575C86.4336 34.4067 86.0352 33.9849 85.4844 33.6919C84.9336 33.3872 84.207 33.2349 83.3047 33.2349H78.2246L78.2598 29.6138H84.5879L85.8008 31.0376C87.3594 31.0142 88.6133 31.2896 89.5625 31.8638C90.5234 32.4263 91.2207 33.1587 91.6543 34.061C92.0996 34.9634 92.3223 35.9302 92.3223 36.9614C92.3223 38.6021 91.9648 39.9849 91.25 41.1099C90.5352 42.2231 89.4863 43.061 88.1035 43.6235C86.7324 44.186 85.0566 44.4673 83.0762 44.4673ZM95.1523 35.1509V34.7817C95.1523 33.3872 95.3516 32.104 95.75 30.9321C96.1484 29.7485 96.7285 28.7231 97.4902 27.856C98.252 26.9888 99.1895 26.3149 100.303 25.8345C101.416 25.3423 102.693 25.0962 104.135 25.0962C105.576 25.0962 106.859 25.3423 107.984 25.8345C109.109 26.3149 110.053 26.9888 110.814 27.856C111.588 28.7231 112.174 29.7485 112.572 30.9321C112.971 32.104 113.17 33.3872 113.17 34.7817V35.1509C113.17 36.5337 112.971 37.8169 112.572 39.0005C112.174 40.1724 111.588 41.1978 110.814 42.0767C110.053 42.9438 109.115 43.6177 108.002 44.0981C106.889 44.5786 105.611 44.8188 104.17 44.8188C102.729 44.8188 101.445 44.5786 100.32 44.0981C99.207 43.6177 98.2637 42.9438 97.4902 42.0767C96.7285 41.1978 96.1484 40.1724 95.75 39.0005C95.3516 37.8169 95.1523 36.5337 95.1523 35.1509ZM100.215 34.7817V35.1509C100.215 35.9478 100.285 36.6919 100.426 37.3833C100.566 38.0747 100.789 38.6841 101.094 39.2114C101.41 39.7271 101.82 40.1313 102.324 40.4243C102.828 40.7173 103.443 40.8638 104.17 40.8638C104.873 40.8638 105.477 40.7173 105.98 40.4243C106.484 40.1313 106.889 39.7271 107.193 39.2114C107.498 38.6841 107.721 38.0747 107.861 37.3833C108.014 36.6919 108.09 35.9478 108.09 35.1509V34.7817C108.09 34.0083 108.014 33.2817 107.861 32.6021C107.721 31.9106 107.492 31.3013 107.176 30.7739C106.871 30.2349 106.467 29.813 105.963 29.5083C105.459 29.2036 104.85 29.0513 104.135 29.0513C103.42 29.0513 102.811 29.2036 102.307 29.5083C101.814 29.813 101.41 30.2349 101.094 30.7739C100.789 31.3013 100.566 31.9106 100.426 32.6021C100.285 33.2817 100.215 34.0083 100.215 34.7817ZM115.473 35.1509V34.7817C115.473 33.3872 115.672 32.104 116.07 30.9321C116.469 29.7485 117.049 28.7231 117.811 27.856C118.572 26.9888 119.51 26.3149 120.623 25.8345C121.736 25.3423 123.014 25.0962 124.455 25.0962C125.896 25.0962 127.18 25.3423 128.305 25.8345C129.43 26.3149 130.373 26.9888 131.135 27.856C131.908 28.7231 132.494 29.7485 132.893 30.9321C133.291 32.104 133.49 33.3872 133.49 34.7817V35.1509C133.49 36.5337 133.291 37.8169 132.893 39.0005C132.494 40.1724 131.908 41.1978 131.135 42.0767C130.373 42.9438 129.436 43.6177 128.322 44.0981C127.209 44.5786 125.932 44.8188 124.49 44.8188C123.049 44.8188 121.766 44.5786 120.641 44.0981C119.527 43.6177 118.584 42.9438 117.811 42.0767C117.049 41.1978 116.469 40.1724 116.07 39.0005C115.672 37.8169 115.473 36.5337 115.473 35.1509ZM120.535 34.7817V35.1509C120.535 35.9478 120.605 36.6919 120.746 37.3833C120.887 38.0747 121.109 38.6841 121.414 39.2114C121.73 39.7271 122.141 40.1313 122.645 40.4243C123.148 40.7173 123.764 40.8638 124.49 40.8638C125.193 40.8638 125.797 40.7173 126.301 40.4243C126.805 40.1313 127.209 39.7271 127.514 39.2114C127.818 38.6841 128.041 38.0747 128.182 37.3833C128.334 36.6919 128.41 35.9478 128.41 35.1509V34.7817C128.41 34.0083 128.334 33.2817 128.182 32.6021C128.041 31.9106 127.812 31.3013 127.496 30.7739C127.191 30.2349 126.787 29.813 126.283 29.5083C125.779 29.2036 125.17 29.0513 124.455 29.0513C123.74 29.0513 123.131 29.2036 122.627 29.5083C122.135 29.813 121.73 30.2349 121.414 30.7739C121.109 31.3013 120.887 31.9106 120.746 32.6021C120.605 33.2817 120.535 34.0083 120.535 34.7817ZM141.664 17.4497V44.4673H136.602V17.4497H141.664ZM153.652 25.4478L145.391 34.8696L140.961 39.3521L139.115 35.6958L142.631 31.231L147.57 25.4478H153.652ZM148.396 44.4673L142.771 35.6782L146.27 32.6196L154.232 44.4673H148.396ZM161.176 17.4673V44.4673H156.096V17.4673H161.176ZM171.002 42.3228L176.047 25.4478H181.479L173.832 47.3325C173.668 47.813 173.445 48.3286 173.164 48.8794C172.895 49.4302 172.525 49.9517 172.057 50.4438C171.6 50.9478 171.02 51.3579 170.316 51.6743C169.625 51.9907 168.775 52.1489 167.768 52.1489C167.287 52.1489 166.895 52.1196 166.59 52.061C166.285 52.0024 165.922 51.9204 165.5 51.8149V48.106C165.629 48.106 165.764 48.106 165.904 48.106C166.045 48.1177 166.18 48.1235 166.309 48.1235C166.977 48.1235 167.521 48.0474 167.943 47.895C168.365 47.7427 168.705 47.5083 168.963 47.1919C169.221 46.8872 169.426 46.4888 169.578 45.9966L171.002 42.3228ZM168.893 25.4478L173.023 39.229L173.744 44.5903L170.299 44.9595L163.461 25.4478H168.893Z" fill="white"/>
</svg>
