<svg width="45" height="45" viewBox="0 0 45 45" fill="none" xmlns="http://www.w3.org/2000/svg">
<path fill-rule="evenodd" clip-rule="evenodd" d="M20.6828 0.0367141C20.489 0.0594504 19.9679 0.126352 19.5248 0.185305C10.607 1.37142 3.16106 7.83527 0.790661 16.4485C0.168786 18.7079 0.00496007 19.9544 0.000126839 22.4618C-0.00460569 24.9588 0.121159 25.9902 0.703563 28.2307C1.67273 31.959 3.55084 35.3092 6.23066 38.0897C9.7563 41.7479 14.0473 43.9684 19.2228 44.8127C20.7583 45.0632 24.2094 45.0622 25.7678 44.8108C30.6146 44.0288 34.7262 42.0023 38.132 38.717C41.7595 35.2176 44.0371 30.7929 44.8159 25.7314C45.0613 24.1363 45.0614 20.8888 44.816 19.2929C44.0375 14.2293 41.7624 9.8094 38.132 6.3073C34.7626 3.05702 30.8145 1.08138 26.0698 0.271321C24.9102 0.0734343 21.5975 -0.0709312 20.6828 0.0367141ZM24.2574 3.30088C28.9228 3.74042 33.2644 5.82491 36.4486 9.15407C39.9615 12.827 41.8282 17.468 41.8282 22.5296C41.8282 29.1558 38.5695 35.1078 32.9169 38.8059C30.717 40.2453 27.7807 41.306 24.9823 41.6724C16.8268 42.7401 8.80949 38.4241 5.18175 31.0131C1.53337 23.5598 3.01656 14.7265 8.90414 8.84411C12.9081 4.84373 18.6457 2.77221 24.2574 3.30088ZM28.7382 14.1726C28.5997 14.2267 27.1388 15.6152 25.4917 17.2583L22.4969 20.2457L19.5005 17.2617C16.265 14.0395 16.2688 14.0423 15.3762 14.2096C14.8806 14.3024 14.2783 14.9042 14.1853 15.3994C14.0179 16.2912 14.0151 16.2874 17.2399 19.5198L20.2265 22.5135L18.2622 24.4997C14.412 28.3927 14.1625 28.6666 14.0835 29.0871C13.8654 30.2486 14.933 31.2533 16.0761 30.9622C16.4533 30.8662 16.8583 30.4931 19.493 27.8145L22.4819 24.7757L25.5346 27.8107C28.1826 30.4435 28.6438 30.8606 29.0151 30.9584C29.6252 31.1191 30.1389 30.9576 30.5845 30.4648C30.9769 30.0309 31.1123 29.5574 31.0104 28.9759C30.9525 28.6455 30.5603 28.2205 27.8526 25.5535L24.7608 22.5083L27.7499 19.5676C29.3939 17.9502 30.7898 16.5231 30.8519 16.3963C31.0469 15.9989 30.9968 15.2118 30.7515 14.8152C30.3647 14.1899 29.4453 13.8964 28.7382 14.1726Z" fill="black"/>
</svg>
