<svg width="329" height="468" viewBox="0 0 329 468" fill="none" xmlns="http://www.w3.org/2000/svg">
<path d="M327.185 467.195H8.83556C8.61396 467.195 8.40143 467.104 8.24473 466.943C8.08803 466.782 8 466.564 8 466.337C8 466.109 8.08803 465.891 8.24473 465.73C8.40143 465.569 8.61396 465.478 8.83556 465.478H327.185C327.407 465.478 327.619 465.569 327.776 465.73C327.933 465.891 328.021 466.109 328.021 466.337C328.021 466.564 327.933 466.782 327.776 466.943C327.619 467.104 327.407 467.195 327.185 467.195Z" fill="#CBCBCB"/>
<path d="M272.784 110.532H270.296V40.5207C270.296 35.1994 269.275 29.9303 267.293 25.0141C265.31 20.0979 262.405 15.6309 258.742 11.8682C255.079 8.10555 250.73 5.12082 245.944 3.08446C241.158 1.04811 236.028 4.50858e-06 230.848 0H86.4476C75.9855 -2.0487e-05 65.9518 4.26908 58.554 11.8682C51.1561 19.4672 47 29.7738 47 40.5205V424.608C47 429.929 48.0203 435.198 50.0028 440.115C51.9852 445.031 54.8909 449.498 58.5539 453.26C62.2169 457.023 66.5656 460.008 71.3516 462.044C76.1376 464.08 81.2672 465.129 86.4475 465.129H230.848C241.31 465.129 251.344 460.86 258.742 453.26C266.139 445.661 270.295 435.355 270.296 424.608V160.367H272.784V110.532Z" fill="#3F3D56"/>
<path d="M232.559 10H213.71C214.576 12.183 214.907 14.5514 214.673 16.8967C214.439 19.2419 213.647 21.4921 212.367 23.4488C211.086 25.4056 209.357 27.0089 207.332 28.1175C205.306 29.2262 203.047 29.8061 200.751 29.8063H118.026C115.731 29.8061 113.471 29.2262 111.446 28.1175C109.42 27.0089 107.691 25.4056 106.411 23.4488C105.131 21.4921 104.339 19.242 104.104 16.8967C103.87 14.5514 104.201 12.183 105.068 10H87.4629C83.5943 10 79.7636 10.7827 76.1895 12.3034C72.6153 13.8241 69.3678 16.0531 66.6323 18.863C63.8967 21.673 61.7268 25.0088 60.2463 28.6802C58.7659 32.3516 58.0039 36.2865 58.0039 40.2603V423.784C58.0039 427.758 58.7659 431.693 60.2463 435.364C61.7268 439.036 63.8967 442.372 66.6322 445.181C69.3678 447.991 72.6153 450.22 76.1894 451.741C79.7636 453.262 83.5943 454.045 87.4629 454.045H232.559C236.427 454.045 240.258 453.262 243.832 451.741C247.406 450.22 250.654 447.991 253.389 445.181C256.125 442.372 258.295 439.036 259.775 435.364C261.256 431.693 262.018 427.758 262.018 423.784V40.2603C262.018 36.2865 261.256 32.3516 259.775 28.6802C258.295 25.0088 256.125 21.673 253.389 18.863C250.654 16.0531 247.406 13.8241 243.832 12.3034C240.258 10.7827 236.427 9.99999 232.559 10Z" fill="white"/>
<path d="M319.185 464.653H0.835564C0.613958 464.653 0.401429 464.562 0.24473 464.401C0.0880317 464.24 0 464.022 0 463.795C0 463.567 0.0880317 463.349 0.24473 463.188C0.401429 463.027 0.613958 462.936 0.835564 462.936H319.185C319.407 462.936 319.619 463.027 319.776 463.188C319.933 463.349 320.021 463.567 320.021 463.795C320.021 464.022 319.933 464.24 319.776 464.401C319.619 464.562 319.407 464.653 319.185 464.653Z" fill="#CBCBCB"/>
<path d="M160.01 296.153C198.98 296.153 230.571 263.702 230.571 223.673C230.571 183.644 198.98 151.193 160.01 151.193C121.041 151.193 89.4502 183.644 89.4502 223.673C89.4502 263.702 121.041 296.153 160.01 296.153Z" fill="#E77D2C"/>
<path d="M153.018 251.322C151.431 251.325 149.885 250.797 148.615 249.819L148.537 249.758L131.954 236.728C131.186 236.123 130.541 235.369 130.057 234.508C129.573 233.647 129.259 232.697 129.132 231.712C129.005 230.726 129.069 229.725 129.319 228.765C129.569 227.804 130 226.904 130.589 226.115C131.178 225.326 131.912 224.664 132.75 224.167C133.588 223.669 134.513 223.346 135.473 223.216C136.432 223.086 137.407 223.151 138.342 223.408C139.277 223.665 140.153 224.108 140.921 224.713L151.662 233.174L177.043 199.16C177.632 198.372 178.366 197.71 179.203 197.213C180.041 196.716 180.965 196.393 181.924 196.263C182.883 196.133 183.858 196.198 184.793 196.455C185.727 196.711 186.603 197.155 187.371 197.759L187.373 197.761L187.215 197.986L187.377 197.761C188.926 198.984 189.939 200.787 190.195 202.777C190.45 204.766 189.927 206.778 188.74 208.372L158.886 248.361C158.195 249.282 157.307 250.028 156.291 250.54C155.274 251.052 154.157 251.316 153.024 251.313L153.018 251.322Z" fill="white"/>
</svg>
