<svg width="18" height="18" viewBox="0 0 18 18" fill="none" xmlns="http://www.w3.org/2000/svg">
<path fill-rule="evenodd" clip-rule="evenodd" d="M6.15384 0.418495C3.70584 1.20127 1.46777 3.32458 0.526685 5.75672C0.176654 6.6616 0.0831962 7.20299 0.0259155 8.65887C-0.0383468 10.2893 -0.00597766 10.5668 0.389592 11.774C1.31259 14.5917 3.35803 16.6216 6.24365 17.5835C7.91241 18.1397 10.0905 18.1388 11.8689 17.5809C14.405 16.7853 16.6297 14.6631 17.5606 12.1514C17.9535 11.091 18 10.7578 18 8.99621C18 7.23466 17.9535 6.90141 17.5606 5.84102C16.6297 3.32931 14.405 1.2071 11.8689 0.411562C10.1119 -0.13975 7.89083 -0.136914 6.15384 0.418495ZM10.6646 1.5071C12.1561 1.82096 13.451 2.55394 14.5843 3.72574C16.2928 5.49265 17.0505 7.82521 16.6672 10.1385C16.472 11.3162 15.968 12.5905 15.3646 13.4321L15.0197 13.9131L9.56387 8.50036L4.10808 3.08761L4.46763 2.79533C5.44965 1.99696 7.48843 1.31361 8.95568 1.29092C9.30476 1.28556 10.0737 1.38278 10.6646 1.5071ZM13.6008 15.2034C12.9242 15.7632 11.3381 16.3936 10.1457 16.5769C5.10549 17.3514 0.577619 12.834 1.40287 7.85388C1.59804 6.67626 2.10198 5.40189 2.70542 4.56035L3.05037 4.07931L8.50616 9.49206L13.9619 14.9048L13.6008 15.2034Z" fill="#F11212"/>
</svg>
