<svg width="24" height="28" viewBox="0 0 24 28" fill="none" xmlns="http://www.w3.org/2000/svg">
<path fill-rule="evenodd" clip-rule="evenodd" d="M9.11539 0.14676C8.22531 0.513366 7.56531 1.42255 7.44323 2.45036L7.32462 3.44884H4.59623C0.456 3.44884 0 3.8126 0 7.1149C0 9.11317 0.182769 9.57718 0.969231 9.57718C1.19769 9.57718 1.38854 9.60169 1.39338 9.63189C1.39823 9.6621 1.593 13.3367 1.82631 17.7979C2.28785 26.6242 2.35477 26.9779 3.68469 27.6302C4.68992 28.1233 19.3101 28.1233 20.3153 27.6302C21.6452 26.9779 21.7122 26.6242 22.1737 17.7979C22.407 13.3367 22.6018 9.6621 22.6066 9.63189C22.6115 9.60169 22.8023 9.57718 23.0308 9.57718C23.8156 9.57718 24 9.11252 24 7.13613C24 3.80932 23.5528 3.44884 19.4262 3.44884H16.6754L16.5552 2.43723C16.4661 1.68826 16.2478 1.24811 15.7138 0.740989C14.9954 0.0592119 14.9813 0.0561478 12.2848 0.00646446C10.7954 -0.0211131 9.36923 0.0421401 9.11539 0.14676ZM14.4923 1.96053C14.6446 2.10498 14.7692 2.49895 14.7692 2.83601V3.44884H12H9.23077V2.83601C9.23077 2.49895 9.35538 2.10498 9.50769 1.96053C9.88477 1.6029 14.1152 1.6029 14.4923 1.96053ZM22.1077 6.56773L22.1769 7.82622H12.0115H1.84615V6.65899C1.84615 6.01683 1.91654 5.42501 2.00238 5.34337C2.08846 5.26195 6.63162 5.2208 12.0985 5.25232L22.0385 5.30923L22.1077 6.56773ZM20.6372 11.4923C20.5673 12.5457 20.3751 16.1389 20.2098 19.4771C20.0026 23.6643 19.8194 25.6498 19.6188 25.879C19.1822 26.378 4.81777 26.378 4.38115 25.879C4.18062 25.6498 3.99738 23.6643 3.79015 19.4771C3.62492 16.1389 3.43269 12.5457 3.36277 11.4923L3.23585 9.57718H12H20.7642L20.6372 11.4923ZM6.71677 11.6284C6.531 11.8409 6.47215 13.7055 6.51554 18.0065C6.57115 23.5194 6.61454 24.107 6.98077 24.3259C7.27523 24.5021 7.494 24.5021 7.78846 24.3259C8.15469 24.107 8.19808 23.5194 8.25369 18.0065C8.31715 11.7295 8.26477 11.3281 7.38462 11.3281C7.16192 11.3281 6.86146 11.4632 6.71677 11.6284ZM11.3322 11.6284C11.1464 11.8409 11.0875 13.7055 11.1309 18.0065C11.1865 23.5194 11.2299 24.107 11.5962 24.3259C11.8906 24.5021 12.1094 24.5021 12.4038 24.3259C12.7701 24.107 12.8135 23.5194 12.8691 18.0065C12.9325 11.7295 12.8802 11.3281 12 11.3281C11.7773 11.3281 11.4768 11.4632 11.3322 11.6284ZM15.9475 11.6284C15.7618 11.8409 15.7029 13.7055 15.7463 18.0065C15.8019 23.5194 15.8453 24.107 16.2115 24.3259C16.506 24.5021 16.7248 24.5021 17.0192 24.3259C17.3855 24.107 17.4288 23.5194 17.4845 18.0065C17.5479 11.7295 17.4955 11.3281 16.6154 11.3281C16.3927 11.3281 16.0922 11.4632 15.9475 11.6284Z" fill="#E77D2C"/>
</svg>
