<svg width="20" height="20" viewBox="0 0 20 20" fill="none" xmlns="http://www.w3.org/2000/svg">
<path fill-rule="evenodd" clip-rule="evenodd" d="M0.481968 0.481865L0 0.963534V9.69265V18.4218L0.517306 18.8285C0.801775 19.0522 1.21248 19.2353 1.43 19.2353C1.66853 19.2353 2.65583 18.4175 3.91739 17.1744L6.00939 15.1135H8.87076H11.7321L11.816 16.2735C11.9283 17.8263 12.5891 18.8206 13.9641 19.5056C15.7736 20.4071 17.6899 20.0593 18.975 18.5961C20.7633 16.5597 20.1294 13.3321 17.7129 12.1693L16.693 11.6786L16.6902 6.32117L16.6873 0.963534L16.2053 0.481865L15.7235 0H8.34364H0.96374L0.481968 0.481865ZM15.071 6.71804L15.1234 11.7675L14.61 11.8965C14.3277 11.9671 13.7071 12.3226 13.2309 12.6861L12.3649 13.347H8.88529H5.40589L3.48823 15.257L1.57057 17.167V9.49951C1.57057 5.28226 1.63064 1.77181 1.70407 1.6986C1.77749 1.62519 4.80319 1.58829 8.42806 1.61675L15.0186 1.66837L15.071 6.71804ZM3.33746 4.12186V4.90698H6.67491H10.0124V4.12186V3.33674H6.67491H3.33746V4.12186ZM3.33746 7.4586V8.24372H8.34364H13.3498V7.4586V6.67349H8.34364H3.33746V7.4586ZM3.33746 10.8974V11.7846L7.50928 11.7316L11.6811 11.6786L11.7414 10.8444L11.8018 10.0102H7.56955H3.33746V10.8974ZM16.4091 14.3861C16.6021 14.9569 16.711 15.0244 17.5825 15.1135L18.5433 15.2116L17.79 15.8305C17.056 16.4337 17.0426 16.467 17.2686 17.1515C17.5988 18.1515 17.3728 18.3476 16.5838 17.7458L15.9155 17.2362L15.3688 17.6149C14.2763 18.3713 14.2606 18.3719 14.3823 17.6465C14.4439 17.2788 14.5515 16.8341 14.6212 16.658C14.7115 16.4305 14.5462 16.2132 14.0489 15.9061C13.6645 15.6684 13.3498 15.3977 13.3498 15.3045C13.3498 15.2112 13.7625 15.108 14.267 15.0752C15.1581 15.0171 15.1921 14.9912 15.467 14.1639C15.7813 13.2178 16.0345 13.2775 16.4091 14.3861Z" fill="white"/>
</svg>
